PathFileType	4	(X/Y/Z)	/Users/itak/Documents/Research/Walk-IL/dataset/trc/00013_00004.trc
DataRate	CameraRate	NumFrames	NumMarkers	Units	OrigDataRate	OrigDataStartFrame	OrigNumFrames
100.000000	100.000000	4	55	mm	100.000000	495	566
Frame#	Time	RPSI			LPSI			L3			STRN			T10			C7			CLAV			RBAK			LBAK			LSHO			LUPA			LAEL			LAOL			LWTS			LWPS			LFRA			LIFD			LHTS			RSHO			RUPA			RAEL			RAOL			RWTS			RWPS			RFRA			RIFD			RHTS			RHPS			RBHD			LFHD			RFHD			LBHD			LHIP			RHIP			RASI			LASI			LKNE			LTHI			LANK			LTIP			LTOE			LMT1			LMT5			LHEE			RKNE			RTHI			RANK			RTIP			RTOE			RMT1			RMT5			RHEE			LHPS			*53			*54			
		X1	Y1	Z1	X2	Y2	Z2	X3	Y3	Z3	X4	Y4	Z4	X5	Y5	Z5	X6	Y6	Z6	X7	Y7	Z7	X8	Y8	Z8	X9	Y9	Z9	X10	Y10	Z10	X11	Y11	Z11	X12	Y12	Z12	X13	Y13	Z13	X14	Y14	Z14	X15	Y15	Z15	X16	Y16	Z16	X17	Y17	Z17	X18	Y18	Z18	X19	Y19	Z19	X20	Y20	Z20	X21	Y21	Z21	X22	Y22	Z22	X23	Y23	Z23	X24	Y24	Z24	X25	Y25	Z25	X26	Y26	Z26	X27	Y27	Z27	X28	Y28	Z28	X29	Y29	Z29	X30	Y30	Z30	X31	Y31	Z31	X32	Y32	Z32	X33	Y33	Z33	X34	Y34	Z34	X35	Y35	Z35	X36	Y36	Z36	X37	Y37	Z37	X38	Y38	Z38	X39	Y39	Z39	X40	Y40	Z40	X41	Y41	Z41	X42	Y42	Z42	X43	Y43	Z43	X44	Y44	Z44	X45	Y45	Z45	X46	Y46	Z46	X47	Y47	Z47	X48	Y48	Z48	X49	Y49	Z49	X50	Y50	Z50	X51	Y51	Z51	X52	Y52	Z52	X53	Y53	Z53	X54	Y54	Z54	X55	Y55	Z55	

496	4.95	-1166.622192382812	1067.25732421875	-122.8913879394531	-1177.946411132812	1066.173583984375	-286.6504516601562	-1175.755615234375	1126.232177734375	-213.1069641113281	-953.5459594726562	1326.08544921875	-215.1678924560547	-1201.735473632812	1271.606689453125	-211.0141296386719	-1163.234619140625	1540.676391601562	-219.4849243164062	-1000.389526367188	1451.06591796875	-217.6683502197266	-1207.766723632812	1401.061767578125	-139.2207183837891	-1180.851196289062	1499.564086914062	-317.4791870117188	-1078.296752929688	1509.317749023438	-393.3491516113281	-1110.144287109375	1385.119995117188	-470.4296569824219	-1119.368408203125	1168.400634765625	-497.5528564453125	-1172.19140625	1157.123657226562	-405.9165344238281	-1041.060546875	910.9058227539062	-447.9706420898438	-1121.444213867188	900.4503173828125	-487.9171447753906	-1112.264282226562	1051.7412109375	-505.31201171875	-1026.494873046875	723.711181640625	-432.9159851074219	-1027.2890625	815.6925048828125	-463.5966186523438	-1081.082641601562	1527.805419921875	-46.57815170288086	-1091.685180664062	1455.6396484375	26.77955436706543	-1125.188110351562	1187.485961914062	50.19518661499023	-1129.43212890625	1159.127685546875	-46.39072799682617	-1002.340698242188	924.76220703125	22.04020309448242	-1069.491333007812	913.41796875	86.03114318847656	-1112.828369140625	1112.388793945312	66.16712951660156	-990.930908203125	736.2640380859375	14.20032501220703	-975.4006958007812	813.4815063476562	39.18375015258789	-1032.260620117188	812.2926025390625	87.43605041503906	-1107.027709960938	1720.765502929688	-136.5751800537109	-934.380859375	1739.734619140625	-257.1622314453125	-933.947509765625	1737.93994140625	-158.7318572998047	-1115.226928710938	1728.05224609375	-280.6688842773438	-1088.215942382812	970.6410522460938	-401.2622680664062	-1046.873168945312	958.7985229492188	-28.47178840637207	-947.7620239257812	992.956298828125	-109.7809219360352	-967.0359497070312	1013.812561035156	-343.4064331054688	-1035.829223632812	526.1707763671875	-364.1254272460938	-1063.728393554688	661.5908203125	-396.188232421875	-1149.406860351562	44.5015983581543	-369.8401489257812	-1123.324096679688	292.5820007324219	-383.1545715332031	-929.9025268554688	41.49084854125977	-305.5252380371094	-989.4136962890625	50.87489318847656	-288.5895385742188	-1024.892211914062	41.06992340087891	-389.1233215332031	-1218.936279296875	51.39324569702148	-316.9689025878906	-1038.074951171875	523.7390747070312	-99.35903930664062	-1021.3154296875	790.7645263671875	-41.56726837158203	-1161.89208984375	43.95378494262695	-143.0023193359375	-1064.7919921875	398.9850158691406	-103.761344909668	-929.3517456054688	47.00819778442383	-180.8952484130859	-992.13330078125	51.35290908813477	-211.6637725830078	-1011.803894042969	44.50620269775391	-116.5144424438477	-1217.08984375	45.91305541992188	-188.7002563476562	-1093.42333984375	809.4299926757812	-489.23876953125	nan	nan	nan	nan	nan	nan	
497	4.96	-1166.44091796875	1067.101928710938	-123.4934005737305	-1177.788452148438	1065.986083984375	-287.314208984375	-1175.657958984375	1126.027709960938	-213.7178649902344	-953.7747192382812	1326.226318359375	-215.6421966552734	-1201.800537109375	1271.345947265625	-211.5599365234375	-1163.838134765625	1540.5078125	-219.9667358398438	-1000.787475585938	1451.181884765625	-218.1633758544922	-1208.1083984375	1400.778686523438	-139.7308654785156	-1181.33642578125	1499.35595703125	-317.9911193847656	-1078.779663085938	1509.295288085938	-393.8125	-1110.420288085938	1385.053955078125	-470.9590454101562	-1119.235961914062	1168.322143554688	-498.0015563964844	-1172.1298828125	1156.974243164062	-406.3968505859375	-1040.798950195312	910.8759155273438	-448.4006652832031	-1121.093994140625	900.3504028320312	-488.3742065429688	-1112.046630859375	1051.669311523438	-505.7613220214844	-1026.061767578125	723.6853637695312	-433.3739929199219	-1026.809326171875	815.6708984375	-464.0146179199219	-1081.65673828125	1527.78759765625	-47.09738159179688	-1092.098754882812	1455.5732421875	26.29919052124023	-1124.854736328125	1187.251831054688	49.53543472290039	-1129.181274414062	1158.995239257812	-47.07369232177734	-1000.335083007812	925.432373046875	20.46369552612305	-1067.151489257812	913.36669921875	84.57932281494141	-1112.0712890625	1112.075439453125	65.34607696533203	-987.170166015625	737.0830078125	12.10817718505859	-972.3165893554688	814.3394775390625	37.26017761230469	-1029.100463867188	812.609375	85.6109619140625	-1107.9091796875	1720.62109375	-137.0867156982422	-935.1704711914062	1739.924072265625	-257.5149841308594	-934.8309936523438	1738.051879882812	-159.107177734375	-1116.049072265625	1727.911743164062	-281.1477355957031	-1087.768188476562	970.5011596679688	-401.7640686035156	-1046.670532226562	958.8539428710938	-29.04318618774414	-947.5248413085938	993.1198120117188	-110.2876968383789	-966.7590942382812	1013.867980957031	-343.8910827636719	-1036.662963867188	525.9913330078125	-364.5440979003906	-1064.1279296875	661.4711303710938	-396.65576171875	-1149.389404296875	44.419189453125	-369.9197998046875	-1123.931396484375	292.5610656738281	-383.4384765625	-929.8626098632812	41.42372894287109	-305.5765991210938	-989.413818359375	50.84126663208008	-288.6803588867188	-1024.885375976562	40.91842269897461	-389.2672729492188	-1218.944580078125	51.31803894042969	-317.0591430664062	-1038.327514648438	523.7659912109375	-99.65715789794922	-1021.31005859375	790.77685546875	-42.02488327026367	-1161.844970703125	44.02296447753906	-143.0685577392578	-1065.15380859375	399.0532836914062	-103.9964599609375	-929.24072265625	46.81889343261719	-180.9470672607422	-992.0577392578125	51.25050354003906	-211.7173156738281	-1011.768615722656	44.49995422363281	-116.5585861206055	-1217.017700195312	45.9748420715332	-188.779052734375	-1093.080200195312	809.3965454101562	-489.7137756347656	nan	nan	nan	nan	nan	nan	
498	4.97	-1166.249145507812	1066.925048828125	-124.1169052124023	-1177.63623046875	1065.750366210938	-288.0057983398438	-1175.580200195312	1125.788818359375	-214.3717346191406	-953.9844360351562	1326.324340820312	-216.1353607177734	-1201.823364257812	1271.0732421875	-212.1318511962891	-1164.409057617188	1540.328857421875	-220.4453430175781	-1001.151306152344	1451.262573242188	-218.6808319091797	-1208.408203125	1400.477905273438	-140.2429046630859	-1181.782104492188	1499.121948242188	-318.5003967285156	-1079.231079101562	1509.2353515625	-394.2872924804688	-1110.697265625	1384.947631835938	-471.4986572265625	-1119.127807617188	1168.205444335938	-498.4893493652344	-1172.085083007812	1156.777709960938	-406.920654296875	-1040.461791992188	910.8477172851562	-448.8690490722656	-1120.653076171875	900.2216186523438	-488.8590393066406	-1111.777587890625	1051.56640625	-506.2450561523438	-1025.395629882812	723.6798095703125	-433.8743286132812	-1026.170288085938	815.6632690429688	-464.4656372070312	-1082.190063476562	1527.723510742188	-47.60811614990234	-1092.4560546875	1455.462768554688	25.81317520141602	-1124.459228515625	1186.974975585938	48.91590118408203	-1128.901123046875	1158.814208984375	-47.70943832397461	-998.3173217773438	926.0751342773438	18.86763572692871	-1064.742553710938	913.2951049804688	83.15813446044922	-1111.266235351562	1111.725463867188	64.55379486083984	-983.39306640625	737.8890991210938	10.01115036010742	-969.193603515625	815.1841430664062	35.33303451538086	-1025.872924804688	812.9135131835938	83.81389617919922	-1108.734130859375	1720.444091796875	-137.5855712890625	-935.9072265625	1740.1044921875	-257.8934631347656	-935.6455078125	1738.147583007812	-159.5064849853516	-1116.802124023438	1727.731079101562	-281.6393432617188	-1087.33447265625	970.3021240234375	-402.2897338867188	-1046.501098632812	958.903564453125	-29.63555717468262	-947.28759765625	993.2513427734375	-110.8149032592773	-966.510009765625	1013.872741699219	-344.3893432617188	-1037.395629882812	525.770751953125	-364.9578247070312	-1064.487548828125	661.308349609375	-397.1230773925781	-1149.381469726562	44.33041763305664	-369.9822692871094	-1124.435668945312	292.4951171875	-383.6852416992188	-929.8236694335938	41.35505294799805	-305.619873046875	-989.412353515625	50.80022048950195	-288.7669677734375	-1024.88037109375	40.77394866943359	-389.4024658203125	-1218.970336914062	51.2530403137207	-317.1292419433594	-1038.639526367188	523.7922973632812	-99.9541015625	-1021.277465820312	790.78515625	-42.49264526367188	-1161.799194335938	44.0822868347168	-143.1264801025391	-1065.533813476562	399.147705078125	-104.2063751220703	-929.146484375	46.65692520141602	-180.9933624267578	-991.98486328125	51.15923309326172	-211.7618713378906	-1011.733947753906	44.49417495727539	-116.5987319946289	-1216.960571289062	46.04647445678711	-188.8506011962891	-1092.5537109375	809.3446655273438	-490.2148742675781	nan	nan	nan	nan	nan	nan	
499	4.98	-1166.054443359375	1066.736450195312	-124.7608871459961	-1177.474243164062	1065.481811523438	-288.7153930664062	-1175.515258789062	1125.5263671875	-215.0612030029297	-954.1788940429688	1326.385864257812	-216.6489410400391	-1201.814208984375	1270.791137695312	-212.73095703125	-1164.950073242188	1540.139282226562	-220.9278564453125	-1001.496459960938	1451.306396484375	-219.210205078125	-1208.676391601562	1400.16357421875	-140.7609252929688	-1182.1865234375	1498.867797851562	-319.0153503417969	-1079.657958984375	1509.143798828125	-394.7761535644531	-1110.963623046875	1384.808227539062	-472.0470886230469	-1119.038940429688	1168.052978515625	-499.0128479003906	-1172.044677734375	1156.540161132812	-407.4831237792969	-1040.052001953125	910.8206787109375	-449.3793029785156	-1120.121704101562	900.068603515625	-489.3703002929688	-1111.456909179688	1051.435913085938	-506.7599792480469	-1024.511352539062	723.6979370117188	-434.4147644042969	-1025.38623046875	815.6646728515625	-464.9419250488281	-1082.691284179688	1527.61669921875	-48.10497283935547	-1092.769409179688	1455.3095703125	25.3181037902832	-1124.010864257812	1186.655639648438	48.32655715942383	-1128.590942382812	1158.587158203125	-48.306884765625	-996.2698974609375	926.6898803710938	17.27425765991211	-1062.278564453125	913.2056884765625	81.77262115478516	-1110.421875	1111.34423828125	63.7820930480957	-979.6118774414062	738.6820068359375	7.937821865081787	-966.0409545898438	816.0175170898438	33.42127990722656	-1022.595275878906	813.19677734375	82.0528564453125	-1109.5	1720.2373046875	-138.0704345703125	-936.5872192382812	1740.26611328125	-258.2891540527344	-936.388916015625	1738.224731445312	-159.9225006103516	-1117.478271484375	1727.522827148438	-282.1450500488281	-1086.919677734375	970.0581665039062	-402.8359069824219	-1046.3505859375	958.949462890625	-30.24752426147461	-947.0451049804688	993.3529052734375	-111.354133605957	-966.2627563476562	1013.836120605469	-344.9031372070312	-1038.049560546875	525.5261840820312	-365.3531799316406	-1064.791259765625	661.1132202148438	-397.5690002441406	-1149.381591796875	44.24118804931641	-370.0269165039062	-1124.8447265625	292.3927612304688	-383.8920593261719	-929.7855224609375	41.28645324707031	-305.6531372070312	-989.4094848632812	50.75363540649414	-288.8460693359375	-1024.878295898438	40.6414909362793	-389.5251159667969	-1219.01025390625	51.1966438293457	-317.1788940429688	-1039.014526367188	523.8203735351562	-100.2596435546875	-1021.195983886719	790.7968139648438	-42.97948455810547	-1161.752807617188	44.13370895385742	-143.1773376464844	-1065.932983398438	399.2718811035156	-104.408073425293	-929.0697021484375	46.51882553100586	-181.0363311767578	-991.9135131835938	51.07637786865234	-211.7993316650391	-1011.701110839844	44.48654556274414	-116.6369094848633	-1216.919799804688	46.12493896484375	-188.9167938232422	-1091.8515625	809.2738647460938	-490.7407531738281	nan	nan	nan	nan	nan	nan	
